<svg xmlns="http://www.w3.org/2000/svg" width="14.196" height="14.196" viewBox="0 0 14.196 14.196"><path d="M7.1,0a7.1,7.1,0,1,0,7.1,7.1A7.1,7.1,0,0,0,7.1,0Zm0,13.087A5.989,5.989,0,1,1,13.087,7.1,5.989,5.989,0,0,1,7.1,13.087Z" fill="#fff"/><path d="M131.176,176.462a1.1,1.1,0,0,1,.2.66.976.976,0,0,1-.2.638,1.022,1.022,0,0,1-.326.246.959.959,0,0,1,.494.382,1.156,1.156,0,0,1,.166.635,1.271,1.271,0,0,1-.19.689,1.2,1.2,0,0,1-.3.342,1.183,1.183,0,0,1-.483.217,3,3,0,0,1-.6.058H128V176h2.068A1.3,1.3,0,0,1,131.176,176.462Zm-2.322.291v.953h1.04a.858.858,0,0,0,.453-.107.408.408,0,0,0,.173-.38.39.39,0,0,0-.23-.4,1.591,1.591,0,0,0-.506-.067Zm0,1.671v1.153h1.038a1.029,1.029,0,0,0,.433-.077.547.547,0,0,0,.282-.54.465.465,0,0,0-.273-.464,1.054,1.054,0,0,0-.427-.072Z" transform="translate(-124.451 -171.12)" fill="#fff"/><path d="M273.189,213.725a1.3,1.3,0,0,1,.548.474,1.618,1.618,0,0,1,.252.663,4.313,4.313,0,0,1,.028.634h-2.3a.769.769,0,0,0,.333.676.832.832,0,0,0,.455.12.643.643,0,0,0,.63-.368h.844a1.058,1.058,0,0,1-.307.579,1.535,1.535,0,0,1-1.191.466,1.712,1.712,0,0,1-1.114-.394,1.562,1.562,0,0,1-.482-1.282,1.745,1.745,0,0,1,.436-1.275,1.514,1.514,0,0,1,1.13-.444A1.8,1.8,0,0,1,273.189,213.725Zm-1.237.723a.879.879,0,0,0-.22.5h1.425a.7.7,0,0,0-.222-.507.722.722,0,0,0-.489-.172.653.653,0,0,0-.493.182Z" transform="translate(-263.369 -207.653)" fill="#fff"/><rect width="2.25" height="0.563" transform="translate(8.008 5.195)" fill="#fff"/></svg>