<svg xmlns="http://www.w3.org/2000/svg" width="14" height="14" viewBox="0 0 14 14"><g transform="translate(0.126 0.417)"><g transform="translate(-0.126 -0.417)" fill="none" stroke="#fff" stroke-miterlimit="10" stroke-width="1"><circle cx="7" cy="7" r="7" stroke="none"/><circle cx="7" cy="7" r="6.5" fill="none"/></g><path d="M21.505,16.543a.508.508,0,0,1-.364-.146A.5.5,0,0,1,21,16.02a.512.512,0,0,1,.516-.52.52.52,0,0,1,.373.148.5.5,0,0,1,.152.373.489.489,0,0,1-.152.364A.508.508,0,0,1,21.505,16.543Zm.389,6.246h-.8V17.807h.8Z" transform="translate(-17.349 -13.128)" fill="#fff"/><path d="M37.195,31.09h-.8V28.25q0-1.586-1.158-1.586a1.249,1.249,0,0,0-.989.45,1.666,1.666,0,0,0-.391,1.137v2.84h-.8V26.11h.8v.833h.021a1.8,1.8,0,0,1,1.632-.954,1.524,1.524,0,0,1,1.249.527,2.351,2.351,0,0,1,.433,1.526Z" transform="translate(-26.901 -21.432)" fill="#fff"/></g></svg>