<?xml version="1.0" encoding="utf-8"?>
<!-- Generator: Adobe Illustrator 24.0.1, SVG Export Plug-In . SVG Version: 6.00 Build 0)  -->
<svg version="1.1" id="Calque_1" xmlns="http://www.w3.org/2000/svg" xmlns:xlink="http://www.w3.org/1999/xlink" x="0px" y="0px"
	 viewBox="0 0 630.1 878.4" style="enable-background:new 0 0 630.1 878.4;" xml:space="preserve">
<style type="text/css">
	.st0{enable-background:new    ;}
	.st1{fill:#FFFFFF;}
	.st2{opacity:0.5;}
	.st3{fill:#2EA8D5;}
	.st4{opacity:0.4;}
</style>
<g class="st0">
	<path class="st1" d="M141,365c18.7,0,31.4-2.8,45.2-11l12.1,27c-14.9,7.7-32.5,12.7-53.4,12.7c-82.6,0-138.8-57.8-138.8-150.4
		C6.1,143,81,35,238,35c144.9,0,208.2,93.1,208.2,187.9c0,90.9-59.5,185.7-159.2,200c77.7,56.7,89.2,300.3,196.7,300.3
		c38,0,54-24.8,60.6-54.5c8.8,2.2,18.2,5.5,27,7.7c-11,36.4-33.1,64.5-79.3,64.5c-147.1,0-159.8-235.8-220.4-304.1
		c-24.8,147.1-67.2,216.5-148.2,216.5c-63.9,0-98.1-41.9-98.1-93.1c0-44.6,30.3-86.5,75.5-88.7c0,9.4,0.6,19.3,0.6,28.6
		c-29.2,1.7-51.2,32.5-51.2,64.5c0,41.3,28.6,72.2,73.3,72.2c59.5,0,96.4-67.8,118.4-202.2c-2.8,0-6.1,0-8.8-0.6l3.3-29.8
		c3.9,0,6.6,1.7,8.8,1.7l9.9-82.1c9.9-92.6,25.9-165.3,50.1-213.2c10.5,3.9,21.5,7.7,32,11c-19.3,36.9-36.9,94.8-47.4,181.8
		c-4.4,35.8-8.8,71.1-13.8,104.1c85.4-11,139.4-100.3,139.4-186.8c0-85.4-53.4-169.1-180.7-169.1c-136.6,0-200.5,98.1-200.5,187.3
		C34.2,320.4,78.2,365,141,365z"/>
</g>
<g class="st2">
	
		<image style="overflow:visible;enable-background:new    ;" width="119" height="107" xlink:href="10E97644.png"  transform="matrix(1 0 0 1 68.93 323.22)">
	</image>
</g>
<path class="st3" d="M241.8,435.1c-80.6-12.6-112.3-52.5-112.3-91.3c0-42.1,40.3-82.5,104.3-82.5c9.7,0,19.4,1.3,28.8,3.8l1.3-8
	c0.7-4.1,1.4-8.2,1.9-12.1c-8.4-1.4-17-2.2-25.5-2.3c-85.3,0-135.1,48-135.1,98.2c0,45.8,40.3,93.2,134.4,107.1"/>
<g id="Ombres_6" class="st2">
	
		<image style="overflow:visible;enable-background:new    ;" width="76" height="86" xlink:href="10E9764C.png"  transform="matrix(1 0 0 1 201.93 398.22)">
	</image>
</g>
<g id="Ombres_5" class="st2">
	
		<image style="overflow:visible;enable-background:new    ;" width="114" height="154" xlink:href="10E9764D.png"  transform="matrix(1 0 0 1 316.93 551.22)">
	</image>
</g>
<g id="Ombres_4">
	
		<image style="overflow:visible;enable-background:new    ;" width="103" height="79" xlink:href="10E9764F.png"  transform="matrix(1 0 0 1 246.93 412.22)">
	</image>
</g>
<g id="Ombres_3" class="st2">
	
		<image style="overflow:visible;enable-background:new    ;" width="103" height="123" xlink:href="10E9764B.png"  transform="matrix(1 0 0 1 377.93 143.22)">
	</image>
</g>
<path class="st3" d="M346.2,376.6c4.4-3.4,8.3-7.1,16.8-16c9.9-96.5,72.6-193.6,171.1-193.6c40.9,0,62.2,23,62.2,62.5
	c0,71.8-76.4,181.6-233.4,205.4c-1.9-11.7-2.9-23.5-3-35.3c0-2,0.1-3.3,0.2-5.3c-10.3,7.2-21.4,13.1-33.1,17.9
	c0.6,8.9,1.9,17.8,3.9,26.5c-10.1,0.9-20.7,0.9-31.4,0.9c-10.3,0-18.9-0.3-28.2-1l-2.2,12.7c10,0.7,19.5,1.1,30.4,1.1
	c11.9,0,23.7-0.4,35-1.3c14.8,46.4,49.1,80,107.8,80c46.2,0,78.2-17,98.3-39.5c-5.9,21.7-11.3,42.9-16,63.4
	c-13,53.6-26.1,110.1-92.4,110.1c-35,0-51.5-17.9-51.5-36.1c0-17.9,16-36.6,47.4-38.7c-1.8-7.7-3-15.3-4.1-23
	c-47.4,0.8-72.9,28.5-72.9,55.7c0,27.6,25.5,54.9,79.4,54.9c87.1,0,110.8-62.5,125.6-122c15.4-60.8,25.5-106.7,28.4-114
	c9.1-12.5,17.3-25.7,24.3-39.5l-30.2-9.8c-25.5,39.1-32,126.3-128.6,126.3c-46.2,0-73.5-28.9-84.1-70.6
	c171.8-23.9,264.2-137.4,264.2-216.5c0-45.1-30.2-79.5-93-79.5c-133,0-209.9,129.7-210.8,238.2c4-2.2,7.9-4.7,11.6-7.4"/>
<g id="Ombres_2" class="st4">
	
		<image style="overflow:visible;enable-background:new    ;" width="77" height="93" xlink:href="10E97658.png"  transform="matrix(1 0 0 1 224.93 208.22)">
	</image>
</g>
<g id="Ombres_1" class="st4">
	
		<image style="overflow:visible;enable-background:new    ;" width="106" height="93" xlink:href="10E97659.png"  transform="matrix(1 0 0 1 290.93 358.22)">
	</image>
</g>
<g class="st2">
	
		<image style="overflow:visible;enable-background:new    ;" width="75" height="86" xlink:href="10E9765A.png"  transform="matrix(1 0 0 1 232.93 402.22)">
	</image>
</g>
</svg>
