<svg xmlns="http://www.w3.org/2000/svg" xmlns:xlink="http://www.w3.org/1999/xlink" width="13" height="14" viewBox="0 0 13 14"><defs><clipPath id="a"><rect width="13" height="14" transform="translate(0.188 -0.417)" fill="none"/></clipPath></defs><g transform="translate(-0.188 0.417)"><g transform="translate(0 0)" clip-path="url(#a)"><path d="M6.733,0a6.733,6.733,0,1,0,6.733,6.733A6.733,6.733,0,0,0,6.733,0m5.623,7.279a5.514,5.514,0,0,1-1.492,3.312,5.459,5.459,0,0,1-1.656,1.237l-.728.309H8.352a.364.364,0,0,1-.2-.382V10.336a1.765,1.765,0,0,0-.127-.746,1.183,1.183,0,0,0-.237-.346h.036a4.021,4.021,0,0,0,1.183-.309,2.056,2.056,0,0,0,1.146-1.219,3.749,3.749,0,0,0,.182-1.365,2,2,0,0,0-.419-1.2.382.382,0,0,1-.091-.4,1.911,1.911,0,0,0-.109-1.237.073.073,0,0,0-.073-.055.819.819,0,0,0-.382.036A3.985,3.985,0,0,0,8.243,4a.2.2,0,0,1-.182.036l-.6-.127a5.259,5.259,0,0,0-2.038.127A.164.164,0,0,1,5.277,4a4.094,4.094,0,0,0-.946-.473L4,3.457c-.2-.018-.218-.018-.273.182a1.874,1.874,0,0,0-.018,1.256A.091.091,0,0,1,3.694,5a2.038,2.038,0,0,0-.509,1.128A3.512,3.512,0,0,0,3.239,7.3,2.347,2.347,0,0,0,3.712,8.37a2.511,2.511,0,0,0,1.419.782l.582.091a1.183,1.183,0,0,0-.346.691c0,.036,0,.055-.036.073a1.51,1.51,0,0,1-.873.109,1.019,1.019,0,0,1-.691-.528A1.365,1.365,0,0,0,3.2,9.044a.71.71,0,0,0-.509-.091c-.091.018-.109.055-.055.146a.582.582,0,0,0,.2.2.91.91,0,0,1,.255.237,2.311,2.311,0,0,1,.364.637,1,1,0,0,0,.764.619,2.511,2.511,0,0,0,1.037.018c.073-.018.091,0,.091.073v.873a.328.328,0,0,1-.237.382H4.968c-.018-.036-.055-.036-.091-.055a5.441,5.441,0,0,1-1.11-.528A5.7,5.7,0,0,1,1.838,9.517a5.35,5.35,0,0,1-.691-2.111.27.27,0,0,0-.036-.164V6.314c.036-.018.018-.055.018-.073A5.3,5.3,0,0,1,1.292,5.3,5.586,5.586,0,0,1,3.475,2.184,5.477,5.477,0,0,1,6.751,1.128a5.477,5.477,0,0,1,2.729.71,5.6,5.6,0,0,1,1.947,1.8,5.5,5.5,0,0,1,.91,2.638c0,.018,0,.036.018.036v.892c-.036.018-.018.036-.018.055" transform="translate(0.036 0.129)" fill="#fff"/></g></g></svg>