<svg xmlns="http://www.w3.org/2000/svg" viewBox="0 0 799.59 619.64"><defs><style>.cls-1{stroke:#000;stroke-miterlimit:10;}</style></defs><g id="Calque_2" data-name="Calque 2"><g id="bras_jambes" data-name="bras/jambes"><path d="M228.48,140.46l2.72-1.12,2.6-1.11L239,136c3.44-1.51,6.88-3,10.27-4.54,6.83-3,13.53-6.28,20.19-9.58s13.2-6.79,19.59-10.5S301.79,104,307.86,99.8a212.49,212.49,0,0,0,17.77-13c2.85-2.3,5.69-4.62,8.39-7.09s5.34-5,7.93-7.61,5.06-5.29,7.41-8.1,4.69-5.64,6.84-8.63,4.22-6,6.14-9.21c.91-1.6,1.89-3.18,2.77-4.82s1.7-3.31,2.6-5l1,.36c-5.21,14.14-13.61,27-23.7,38.11a183.13,183.13,0,0,1-34.35,29.11A276.47,276.47,0,0,1,271,125.47q-10.31,4.59-20.89,8.47-5.28,2-10.64,3.69c-1.79.59-3.58,1.15-5.38,1.7l-2.7.8-1.36.38-.68.19-.34.09-.16.05-.09,0s0,0,0,0Z"/><path d="M547.79,153c-2.3.21-4.6.33-6.9.41s-4.61,0-6.92,0c-4.61-.07-9.21-.43-13.82-.84-2.29-.24-4.59-.51-6.88-.84l-3.44-.49-3.42-.56c-2.3-.34-4.56-.85-6.83-1.32s-4.52-1-6.78-1.56c-4.52-1.1-9-2.34-13.41-3.85l-3.31-1.09-3.28-1.2c-2.19-.8-4.38-1.6-6.53-2.52a177.61,177.61,0,0,1-25-12.71c-2-1.18-3.93-2.54-5.87-3.86s-3.89-2.62-5.72-4.08-3.76-2.81-5.58-4.29-3.58-3-5.33-4.58c-.9-.75-1.74-1.57-2.57-2.4l-2.51-2.46-2.51-2.46c-.82-.84-1.59-1.72-2.38-2.58-1.56-1.75-3.18-3.44-4.68-5.23l-4.32-5.53c-1.49-1.81-2.74-3.79-4.07-5.7l-2-2.89-1-1.44-.88-1.52-3.49-6-.87-1.51-.77-1.56c-.51-1-1-2.08-1.54-3.13L383.75,62,383,60.44c-.23-.53-.44-1.07-.66-1.6-.86-2.15-1.74-4.29-2.56-6.45-1.71-4.28-2.85-8.78-4.2-13.15l.47-.17,2.57,6.34c.86,2.11,1.66,4.24,2.71,6.27l3,6.17c.25.51.49,1,.75,1.53l.84,1.5,1.67,3,1.68,3,.83,1.49.93,1.43,3.72,5.74.94,1.43,1,1.37,2,2.75c1.38,1.81,2.66,3.7,4.18,5.4l4.41,5.23c1.52,1.69,3.12,3.31,4.68,5,.79.82,1.56,1.66,2.37,2.46l2.5,2.33,2.5,2.34c.82.78,1.65,1.56,2.54,2.27l5.25,4.37c1.78,1.42,3.64,2.74,5.45,4.12s3.71,2.65,5.6,3.91,3.77,2.57,5.75,3.7a178.92,178.92,0,0,0,24.21,12.63,212.86,212.86,0,0,0,25.73,9.2,231.75,231.75,0,0,0,26.7,5.94c4.5.72,9,1.33,13.56,1.75s9.1.76,13.65.79Z"/><path d="M503.58,355.91c-2,21.77-4.89,43.47-8.47,65S487.3,464,482.25,485.32a592.22,592.22,0,0,1-18.46,63.05,324.36,324.36,0,0,1-12.67,30.35L447.35,586l-4.07,7.15c-1.43,2.34-2.95,4.62-4.42,6.93s-3.26,4.4-4.88,6.59a171.9,171.9,0,0,0,15.36-28.8c4.32-10,8-20.23,11.5-30.55s6.54-20.78,9.41-31.29,5.6-21.06,8.11-31.67,4.92-21.24,7.18-31.91,4.41-21.36,6.51-32.07,4.06-21.45,6-32.2S501.78,366.69,503.58,355.91Z"/></g><g id="têtes"><ellipse class="cls-1" cx="177.93" cy="47.7" rx="45.19" ry="20.3" transform="translate(97.28 213.32) rotate(-79.04)"/><ellipse class="cls-1" cx="580.78" cy="44.43" rx="45.19" ry="20.3" transform="translate(384.98 593.01) rotate(-74.73)"/></g><g id="RC"><path d="M737.7,478.74c-1.78.56-3.57,1.11-5.37,1.62s-3.62,1-5.45,1.39q-5.48,1.32-11.06,2.3a183.18,183.18,0,0,1-22.62,2.26c-1.9.08-3.81.12-5.72.14s-3.81-.1-5.72-.15c-3.83,0-7.64-.42-11.47-.73-.95-.09-1.92-.14-2.87-.27l-2.85-.38-5.73-.77c-1.91-.3-3.8-.68-5.7-1s-3.82-.64-5.69-1.13a184.9,184.9,0,0,1-43.77-16.09l-5.17-2.82c-.86-.47-1.73-.93-2.58-1.42l-2.5-1.55-5-3.11c-1.64-1.09-3.25-2.22-4.87-3.34-3.3-2.17-6.37-4.64-9.52-7-1.6-1.17-3-2.5-4.57-3.77s-3-2.54-4.48-3.89l-4.32-4.06c-.72-.69-1.45-1.35-2.15-2.05l-2.07-2.14-4.13-4.28L548.38,422c-2.68-2.94-5-6.15-7.5-9.26-1.25-1.56-2.34-3.23-3.51-4.83S535,404.68,534,403c-2.13-3.37-4.39-6.66-6.3-10.17-1-1.72-2-3.46-3-5.2L522,382.26l-1.35-2.68c-.44-.89-.82-1.82-1.24-2.73L517,371.37c-.82-1.83-1.48-3.72-2.22-5.58s-1.49-3.72-2.1-5.63a199.25,199.25,0,0,1-10-47,202.25,202.25,0,0,1,2-48.08c.17-1,.29-2,.5-3l.63-3,1.28-5.92c.48-2,1-3.91,1.55-5.86s1-3.91,1.68-5.82c1.27-3.84,2.44-7.71,4-11.46.74-1.88,1.44-3.78,2.21-5.64l2.5-5.52,1.27-2.76,1.39-2.69,2.8-5.36c1-1.77,2-3.49,3-5.24s2-3.49,3.14-5.15l3.32-5,.83-1.26.88-1.22,1.78-2.43c1.19-1.61,2.33-3.27,3.61-4.82l3.81-4.65c.64-.77,1.25-1.57,1.92-2.31l2-2.23,4-4.44,4.22-4.26,2.1-2.12c.71-.7,1.46-1.35,2.19-2l4.39-4c1.47-1.35,3-2.56,4.56-3.84,3-2.58,6.21-4.93,9.37-7.32a214.73,214.73,0,0,1,40.77-23.56c1.77-.83,3.58-1.57,5.39-2.3l5.43-2.18c1.83-.68,3.67-1.31,5.5-2s3.66-1.33,5.53-1.88c3.71-1.13,7.39-2.37,11.16-3.31l5.62-1.48,5.67-1.24c7.55-1.67,15.18-2.88,22.81-3.82l5.75-.55c1.91-.15,3.81-.4,5.73-.47l5.75-.3c1-.05,1.91-.11,2.86-.14l2.88,0,5.74,0c1.9,0,3.79.09,5.69.14,3.78.07,7.56.3,11.33.51,7.54.53,15.05,1.12,22.5,2.29s14.84,2.38,22.16,4c3.66.86,7.29,1.76,10.9,2.77s7.19,2.06,10.73,3.35l-.44,1.75c-7.12-1.63-14.44-2.76-21.73-3.69s-14.65-1.55-22-2a323,323,0,0,0-44.11.54l-2.75.21c-.91.08-1.82.2-2.74.3l-5.47.62c-1.83.17-3.64.52-5.46.78l-5.44.84c-7.22,1.33-14.42,2.81-21.5,4.78a226.77,226.77,0,0,0-41.19,15.39l-4.93,2.46c-1.64.81-3.22,1.75-4.83,2.62s-3.23,1.74-4.8,2.7l-4.7,2.86c-.78.48-1.57.94-2.34,1.43l-2.29,1.53-4.58,3.05L593.85,155c-1.48,1.09-3,2.13-4.39,3.31-2.86,2.29-5.76,4.54-8.47,7-1.37,1.22-2.78,2.39-4.11,3.65l-4,3.8c-.65.64-1.33,1.26-2,1.92l-1.89,2-3.79,4-3.6,4.15-1.79,2.08c-.61.69-1.15,1.43-1.72,2.14a170.39,170.39,0,0,0-35.69,79.11,180.33,180.33,0,0,0,6.43,86.71A182.47,182.47,0,0,0,575,428.62a183.41,183.41,0,0,0,118.45,51.44A182.92,182.92,0,0,0,737.35,477Z"/><path d="M0,301.08c2-3.6,4.05-7.14,6.16-10.67s4.21-7,6.36-10.54Q19,269.41,25.8,259.12c4.48-6.89,9.19-13.62,13.93-20.34s9.6-13.38,14.55-20c10-13.11,20.48-25.92,31.63-38.29,5.55-6.21,11.42-12.18,17.53-18a237,237,0,0,1,19.37-16.67c3.44-2.61,7-5.14,10.77-7.52a92.45,92.45,0,0,1,12.14-6.55A65.89,65.89,0,0,1,174.23,126c1.26,0,2.53.15,3.8.24s2.53.29,3.79.53a51.57,51.57,0,0,1,7.5,1.83,54.06,54.06,0,0,1,7.23,2.91,47.73,47.73,0,0,1,6.93,4.15c.59.43,1.16.86,1.81,1.4.84.71,1.17,1,1.65,1.47l.68.64.71.7c.47.48.94.95,1.39,1.45a50.44,50.44,0,0,1,4.91,6.24,59,59,0,0,1,6.72,13.8,70.27,70.27,0,0,1,3.18,14.21,98,98,0,0,1,.72,13.92,143.61,143.61,0,0,1-3.07,26.61,197.82,197.82,0,0,1-7,25.19,210.3,210.3,0,0,1-10,24q-1.47,2.91-3,5.79l-2.91,5.23a55.43,55.43,0,0,0-3.86,9.21,70.38,70.38,0,0,0-3.06,20.52A111.73,111.73,0,0,0,194.45,328c.71,3.69,1.58,7.39,2.58,11.08s2.05,7.39,3.24,11.08a299.27,299.27,0,0,0,18.35,43.42c3.6,7.1,7.49,14.08,11.41,21.07s8,13.9,12.25,20.75,8.59,13.65,13.06,20.38,9.07,13.39,13.64,20.09c9.18,13.3,18.9,26.54,28.32,39.9,18.76,26.81,37.57,53.59,55.55,81l-1.11.86-60.39-77.26L276.29,501c-5-6.44-10-12.9-15-19.45C251.51,468.5,242,455.16,233,441.49s-17.53-27.68-25.25-42.14a311.77,311.77,0,0,1-20-44.94c-5.29-15.52-9.12-31.78-9.15-48.39a84.3,84.3,0,0,1,3.52-24.57,70,70,0,0,1,4.73-11.56l3-5.39c.95-1.79,1.89-3.59,2.79-5.41a197.66,197.66,0,0,0,16.18-45.78,130.23,130.23,0,0,0,2.94-24.05,73.47,73.47,0,0,0-3-23.78,45.49,45.49,0,0,0-5-10.78,37.27,37.27,0,0,0-3.6-4.7c-.32-.38-.66-.73-1-1.09s-.68-.71-1.06-1a19.71,19.71,0,0,0-2.2-1.9,41.07,41.07,0,0,0-22.18-7.59,54.54,54.54,0,0,0-23.38,4.41c-7.44,3.05-14.31,7.43-20.92,12.13-13.16,9.53-25.13,20.68-36.54,32.3s-22.22,23.9-32.67,36.43S39.53,249,29.71,262s-19.39,26.3-28.54,39.81Z"/><path d="M139.49,174.32l.9,3.5.8,3.52,1.54,7q1.35,7.06,2.53,14.17c1.57,9.47,2.75,19,3.62,28.6.47,4.8.72,9.61,1,14.43.19,2.42.22,4.83.3,7.26l.21,7.27c0,2.43,0,4.87,0,7.3s0,4.87-.16,7.33c-.21,4.9-.32,9.81-.89,14.76-.24,2.47-.42,4.94-.73,7.42l-1.06,7.49c-.19,1.26-.35,2.5-.61,3.76l-.81,3.78c-.56,2.5-1.08,5.1-1.68,7.53-2.41,9.56-5.24,18.61-7.93,27.7l-8.3,27Q124,387.58,120,401t-7.93,26.77c-1.33,4.46-2.57,8.93-3.84,13.39l-3.65,13.42-1.81,6.71-1.7,6.73-3.37,13.46c-1.06,4.49-2.09,9-3.11,13.5s-2,9-2.9,13.53l-1.37,6.79-1.28,6.8-.64,3.4-.55,3.41c-.36,2.27-.79,4.54-1.18,6.82l-1,6.84c-.35,2.28-.68,4.57-1,6.86l-.88,6.87c-.29,2.3-.43,4.59-.7,6.89-.58,4.61-.76,9.21-1.16,13.85-.19,2.32-.22,4.62-.34,7s-.28,4.66-.27,7l-.11,7c0,2.35.13,4.67.16,7-.09,4.75.49,9.39.59,14.21l-1.75.44a240.66,240.66,0,0,1-6.84-56.44c-.17-9.49.36-19,1-28.44.79-9.46,1.7-18.9,3.07-28.29C80,487.68,83.71,469.07,88,450.62s9.36-36.72,14.76-54.86,11.52-36.07,17.58-54c3-9,6.06-17.91,8.82-26.9a198.5,198.5,0,0,0,5.91-27.48c1.46-9.29,2.25-18.69,3-28.08.55-9.41,1-18.83,1.05-28.26s.09-18.87-.12-28.31-.64-18.87-1.3-28.27Z"/></g></g></svg>